<svg data-v-fde0c5aa="" xmlns="http://www.w3.org/2000/svg" viewBox="0 0 300 300" class="iconAbove"><!----><defs data-v-fde0c5aa=""><!----></defs><rect data-v-fde0c5aa="" fill="#9B008B" x="0" y="0" width="300px" height="300px" class="logo-background-square"></rect><defs data-v-fde0c5aa=""><!----></defs><g data-v-fde0c5aa="" id="c149e503-134e-4bcd-9973-555386d9f623" fill="#8FF9BD" transform="matrix(4.07971131127481,0,0,4.07971131127481,20,176.13478794505974)"><path d="M3.47 5.60L4.72 10.50L3.30 10.50L1.54 4.06L2.91 4.06L2.91 2.25L1.54 2.25L1.54 3.65L1.54 4.06L1.54 6.12L1.54 8.96L1.54 10.50L0 10.50L0 9.48L0 1.22L0 0.70L0.99 0.70L1.54 0.70L3.05 0.70L3.33 0.70Q3.77 0.70 4.07 0.98Q4.38 1.26 4.44 1.68L4.44 1.68L4.45 1.82L4.45 4.48Q4.45 4.91 4.17 5.23Q3.88 5.54 3.47 5.60L3.47 5.60ZM8.86 0.70L8.86 0.70L10.44 10.50L8.88 10.50L7.91 3.70L7.52 6.90L7.52 6.92L7.91 6.92L7.91 8.46L7.27 8.46L6.94 10.50L5.39 10.50L5.71 8.46L5.36 8.46L5.36 6.92L5.96 6.92L6.96 0.70L8.86 0.70ZM15.39 0.70L15.39 0.70L15.39 2.24L14 2.24L14 8.67L14 10.50L12.46 10.50L12.46 8.67L12.46 2.24L10.98 2.24L10.98 0.70L12.46 0.70L14 0.70L15.39 0.70ZM17.84 0.70L17.84 0.70L20.30 0.70L20.30 1.68L20.30 2.24L17.84 2.24L17.84 4.07L19.80 4.07L19.80 4.35L19.80 5.33L19.80 5.61L17.84 5.61L17.84 8.96L20.30 8.96L20.30 9.52L20.30 10.50L17.84 10.50L16.30 10.50L16.30 9.48L16.30 4.07L17.84 4.07L16.30 1.04L16.30 0.70L17.84 0.70ZM27.92 0.70L27.92 0.70L27.92 2.24L26.53 2.24L26.53 8.67L26.53 10.50L24.99 10.50L24.99 8.67L24.99 2.24L23.51 2.24L23.51 0.70L24.99 0.70L26.53 0.70L27.92 0.70ZM31.72 0.70L31.72 0.70L33.26 0.70L33.26 10.50L31.72 10.50L31.72 5.60L30.37 5.60L30.37 10.50L28.83 10.50L28.83 4.06L30.35 4.06L28.83 1.02L28.83 0.70L30.37 0.70L30.37 4.06L31.72 4.06L31.72 0.70ZM35.71 0.70L35.71 0.70L38.18 0.70L38.18 1.68L38.18 2.24L35.71 2.24L35.71 4.07L37.67 4.07L37.67 4.35L37.67 5.33L37.67 5.61L35.71 5.61L35.71 8.96L38.18 8.96L38.18 9.52L38.18 10.50L35.71 10.50L34.17 10.50L34.17 9.48L34.17 4.07L35.71 4.07L34.17 1.04L34.17 0.70L35.71 0.70ZM45.14 0.70L45.14 0.70L47.53 0.70L47.53 10.50L45.99 10.50L45.99 5.24L45.14 9.77L43.79 9.77L42.94 5.24L42.94 10.50L41.40 10.50L41.40 0.70L43.79 0.70L44.46 4.61L45.14 0.70ZM49.36 0.70L51.95 0.70Q52.35 0.77 52.61 1.08Q52.88 1.40 52.88 1.81L52.88 1.81L52.88 2.86L52.88 3.28L52.88 3.30L52.88 8.36L52.88 9.41Q52.88 9.81 52.61 10.12Q52.35 10.43 51.95 10.50L51.95 10.50L49.36 10.50Q48.97 10.43 48.71 10.12Q48.44 9.81 48.44 9.41L48.44 9.41L48.44 1.81Q48.44 1.40 48.71 1.08Q48.97 0.77 49.36 0.70L49.36 0.70ZM51.34 3.30L51.34 3.28L51.34 2.86L51.34 2.24L49.98 2.24L49.98 8.97L51.34 8.97L51.34 8.36L51.34 3.30ZM58.60 0.70L58.60 0.70L58.93 0.70L58.88 1.04L57.30 10.28L57.27 10.50L57.04 10.50L55.69 10.50L55.45 10.50L55.41 10.28L53.84 1.04L53.79 0.70L54.12 0.70L55.12 0.70L55.36 0.70L55.40 0.94L56.36 7.60L57.33 0.94L57.37 0.70L57.61 0.70L58.60 0.70ZM61.26 0.70L61.26 0.70L63.73 0.70L63.73 1.68L63.73 2.24L61.26 2.24L61.26 4.07L63.22 4.07L63.22 4.35L63.22 5.33L63.22 5.61L61.26 5.61L61.26 8.96L63.73 8.96L63.73 9.52L63.73 10.50L61.26 10.50L59.72 10.50L59.72 9.48L59.72 4.07L61.26 4.07L59.72 1.04L59.72 0.70L61.26 0.70Z"></path></g><defs data-v-fde0c5aa=""><!----></defs><g data-v-fde0c5aa="" id="92b11f18-296d-4851-b166-9e7986853962" stroke="none" fill="#8FF9BD" transform="matrix(0.8419566928820682,0,0,0.8419566928820682,107.90451037859552,78.89980344060167)"><path d="M8.22 24.25L9.31 18l-4.62-4.5a1.89 1.89 0 01-.49-2 1.91 1.91 0 011.56-1.3l6.39-.92L15 3.6a1.94 1.94 0 013.46 0l2.86 5.72 6.39.92a1.91 1.91 0 011.56 1.3 1.88 1.88 0 01-.49 2L24.16 18l1.09 6.29a1.89 1.89 0 01-.77 1.87 1.94 1.94 0 01-1.13.37 2 2 0 01-.9-.22l-5.71-3-5.71 3a1.94 1.94 0 01-2-.15 1.89 1.89 0 01-.81-1.91zm27.44-12.7a1.89 1.89 0 00.49 2L40.78 18l-1.09 6.29a1.89 1.89 0 00.77 1.87 1.94 1.94 0 002 .15l5.71-3 5.71 3a2 2 0 00.9.22 1.94 1.94 0 001.13-.37 1.89 1.89 0 00.77-1.87L55.62 18l4.62-4.45a1.88 1.88 0 00.49-2 1.91 1.91 0 00-1.56-1.3l-6.39-.92-2.85-5.73a1.94 1.94 0 00-3.46 0l-2.86 5.73-6.39.92a1.91 1.91 0 00-1.56 1.29zm55-1.3l-6.39-.92-2.88-5.73a1.94 1.94 0 00-3.47 0l-2.85 5.73-6.39.92a1.91 1.91 0 00-1.56 1.3 1.89 1.89 0 00.49 2L72.24 18l-1.09 6.29a1.89 1.89 0 00.77 1.87 1.94 1.94 0 002 .15l5.71-3 5.71 3a2 2 0 00.9.22 1.94 1.94 0 001.13-.37 1.89 1.89 0 00.77-1.87L87.09 18l4.62-4.45a1.88 1.88 0 00.49-2 1.91 1.91 0 00-1.56-1.31zM24.72 56a1.94 1.94 0 002 .15l5.71-3 5.71 3a2 2 0 00.9.22 1.94 1.94 0 001.17-.37 1.89 1.89 0 00.79-1.9l-1.09-6.29 4.62-4.45a1.88 1.88 0 00.49-2 1.91 1.91 0 00-1.56-1.3l-6.39-.92-2.87-5.68a1.94 1.94 0 00-3.46 0l-2.86 5.72-6.39.92a1.91 1.91 0 00-1.56 1.3 1.89 1.89 0 00.49 2L25 47.81l-1 6.29a1.89 1.89 0 00.72 1.9zm22.6 41.38l.07.12H95.9V79.72a9.28 9.28 0 00-5.45-8.41l-21.71-9.89-1-22.4a6.24 6.24 0 00-6.2-5.87 5.35 5.35 0 00-5.39 5.1l-2 45.68-11-13.13a5.37 5.37 0 00-6.63-1.36A5.23 5.23 0 0034 72.71a5.18 5.18 0 00.62 4.06z"></path></g><!----></svg>